<?xml version="1.0" standalone="no"?>
<!DOCTYPE svg PUBLIC "-//W3C//DTD SVG 20010904//EN"
 "http://www.w3.org/TR/2001/REC-SVG-20010904/DTD/svg10.dtd">
<svg version="1.0" xmlns="http://www.w3.org/2000/svg"
 width="300.000000pt" height="150.000000pt" viewBox="0 0 300.000000 150.000000"
 preserveAspectRatio="xMidYMid meet">

<g transform="translate(0.000000,150.000000) scale(0.100000,-0.100000)"
fill="#000000" stroke="none">
<path d="M1056 1074 c-19 -18 -21 -55 -4 -72 15 -15 61 -15 76 0 18 18 15 53
-6 71 -23 21 -46 22 -66 1z"/>
<path d="M1315 1079 c-81 -15 -95 -19 -95 -29 0 -5 12 -10 27 -12 38 -4 41
-22 42 -245 1 -201 -5 -237 -38 -248 -48 -15 -14 -25 84 -25 63 0 105 4 105
10 0 6 -6 10 -14 10 -8 0 -22 7 -30 16 -14 13 -16 52 -16 275 0 142 -3 258 -7
258 -5 -1 -30 -5 -58 -10z"/>
<path d="M2060 1081 c-70 -22 -105 -68 -116 -149 -6 -51 -7 -52 -40 -52 -24 0
-34 -5 -34 -15 0 -10 11 -15 35 -15 l35 0 0 -146 0 -146 -30 -11 c-16 -6 -30
-15 -30 -19 0 -4 52 -8 115 -8 63 0 115 3 115 8 0 4 -15 14 -33 22 l-32 15 -3
143 -3 142 56 0 c42 0 55 3 55 15 0 12 -13 15 -55 15 l-55 0 0 55 c0 104 48
146 100 90 16 -17 33 -25 50 -23 32 4 38 37 12 61 -22 20 -105 30 -142 18z"/>
<path d="M427 1043 c-13 -12 -7 -23 12 -23 47 0 51 -18 51 -236 0 -191 -1
-205 -20 -224 -11 -11 -27 -20 -35 -20 -8 0 -15 -4 -15 -10 0 -6 45 -10 115
-10 70 0 115 4 115 10 0 6 -6 10 -14 10 -34 0 -46 30 -46 109 0 71 9 101 31
101 15 0 150 -174 147 -189 -2 -9 -13 -17 -26 -19 -12 -2 -22 -8 -22 -13 0 -5
55 -9 125 -9 77 0 125 4 125 10 0 6 -6 10 -14 10 -24 0 -60 36 -163 163 l-102
124 93 96 c62 65 99 97 114 97 13 0 22 6 22 15 0 12 -17 15 -90 15 -73 0 -90
-3 -90 -15 0 -8 9 -15 19 -15 11 0 23 -4 26 -10 5 -8 -159 -199 -185 -215 -15
-9 -13 198 2 213 7 7 22 12 35 12 14 0 23 6 23 15 0 12 -19 15 -113 15 -63 0
-117 -3 -120 -7z"/>
<path d="M1075 878 c-80 -13 -95 -18 -95 -28 0 -6 8 -10 18 -10 37 0 42 -20
42 -153 l0 -129 -30 -11 c-16 -6 -30 -15 -30 -19 0 -4 50 -8 110 -8 61 0 110
4 110 8 0 4 -13 13 -30 19 l-30 11 0 161 c0 88 -3 162 -7 164 -5 2 -30 0 -58
-5z"/>
<path d="M1572 881 c-65 -17 -96 -77 -52 -101 27 -14 54 1 70 39 15 38 43 48
75 27 23 -15 43 -75 32 -94 -3 -4 -38 -21 -78 -37 -86 -35 -139 -80 -139 -119
0 -39 50 -86 90 -86 42 0 96 24 112 49 16 26 28 27 28 3 0 -43 54 -64 105 -40
26 12 36 45 11 35 -26 -10 -34 17 -38 138 -4 123 -14 157 -48 175 -27 14 -128
21 -168 11z m128 -212 c0 -71 -82 -128 -113 -78 -17 27 1 63 45 91 59 38 68
36 68 -13z"/>
<path d="M2170 869 c0 -6 8 -13 19 -16 10 -2 24 -17 31 -31 34 -73 130 -318
130 -333 0 -33 -42 -69 -90 -77 -42 -7 -45 -10 -45 -37 0 -26 4 -30 32 -33 17
-2 46 4 62 13 32 16 37 26 207 382 26 54 55 100 69 109 14 9 25 20 25 25 0 5
-36 9 -80 9 -82 0 -99 -8 -55 -28 14 -6 25 -19 25 -28 0 -18 -77 -204 -90
-217 -8 -9 -80 194 -80 225 0 9 9 20 20 23 46 15 14 25 -80 25 -66 0 -100 -4
-100 -11z"/>
</g>
</svg>
