<svg xmlns="http://www.w3.org/2000/svg" xmlns:xlink="http://www.w3.org/1999/xlink" width="500" zoomAndPan="magnify" viewBox="0 0 375 374.999991" height="500" preserveAspectRatio="xMidYMid meet" version="1.0"><defs><g/></defs><rect x="-37.5" width="450" fill="#ffffff" y="-37.499999" height="449.999989" fill-opacity="1"/><rect x="-37.5" width="450" fill="#131212" y="-37.499999" height="449.999989" fill-opacity="1"/><g fill="#ffffff" fill-opacity="1"><g transform="translate(80.175573, 298.001909)"><g><path d="M 71.625 -43.796875 C 71.625 -36.816406 71.988281 -31.125 72.71875 -26.71875 C 73.457031 -22.3125 74.929688 -18.914062 77.140625 -16.53125 C 79.347656 -14.144531 82.378906 -12.535156 86.234375 -11.703125 C 90.085938 -10.878906 95.226562 -10.46875 101.65625 -10.46875 L 101.65625 0 L 12.390625 0 L 12.390625 -10.46875 C 18.828125 -10.46875 24.019531 -10.878906 27.96875 -11.703125 C 31.914062 -12.535156 34.988281 -14.097656 37.1875 -16.390625 C 39.394531 -18.691406 40.863281 -21.90625 41.59375 -26.03125 C 42.332031 -30.164062 42.703125 -35.445312 42.703125 -41.875 L 42.703125 -170.265625 C 42.703125 -177.242188 42.285156 -182.796875 41.453125 -186.921875 C 40.628906 -191.054688 39.160156 -194.222656 37.046875 -196.421875 C 34.941406 -198.628906 32.144531 -200.054688 28.65625 -200.703125 C 25.164062 -201.347656 20.664062 -201.671875 15.15625 -201.671875 L 15.15625 -212.140625 L 98.90625 -212.140625 L 98.90625 -201.671875 C 93.394531 -201.671875 88.894531 -201.300781 85.40625 -200.5625 C 81.914062 -199.832031 79.113281 -198.269531 77 -195.875 C 74.882812 -193.488281 73.457031 -190.132812 72.71875 -185.8125 C 71.988281 -181.5 71.625 -175.671875 71.625 -168.328125 L 71.625 -100.28125 L 140.5 -183.203125 C 144.175781 -187.796875 146.015625 -191.378906 146.015625 -193.953125 C 146.015625 -199.097656 140.78125 -201.671875 130.3125 -201.671875 L 130.3125 -212.140625 L 196.703125 -212.140625 L 196.703125 -201.9375 C 193.035156 -201.9375 189.820312 -201.707031 187.0625 -201.25 C 184.3125 -200.789062 181.601562 -199.828125 178.9375 -198.359375 C 176.269531 -196.890625 173.46875 -194.773438 170.53125 -192.015625 C 167.59375 -189.265625 164.195312 -185.6875 160.34375 -181.28125 L 108.546875 -121.5 L 189 -24.796875 C 193.582031 -19.472656 197.894531 -15.753906 201.9375 -13.640625 C 205.976562 -11.523438 211.398438 -10.46875 218.203125 -10.46875 L 218.203125 0 L 133.625 0 L 133.625 -10.46875 C 140.78125 -10.46875 145.921875 -11.0625 149.046875 -12.25 C 152.171875 -13.445312 153.734375 -15.332031 153.734375 -17.90625 C 153.734375 -19.375 153 -21.484375 151.53125 -24.234375 C 150.0625 -26.992188 147.671875 -30.394531 144.359375 -34.4375 L 90.640625 -100.5625 L 71.625 -78.515625 Z M 71.625 -43.796875 "/></g></g></g></svg>